# xmcd
#
# Track frame offsets:
#	225
#	17592
#	32162
#	43730
#	61546
#
# Disc length: 1015 seconds
#
# Revision: 5
# Processed by: cddbd v1.5.2PL0 Copyright (c) Steve Scherf et al.
# Submitted via: EasyCDDAExtractor 16.0.6.1
#
DISCID=3403f405
DTITLE=Σαμίου Δόμνα - Δόμνα Σαμίου-Μίνως
DYEAR=2006
DGENRE=Παραδοσιακή
TTITLE0=Σαμίου Δόμνα-Αθανασιάδης Χάρης - Γιάννη μου το μαντήλι σου [1973, παρα
TTITLE0=δ., διασκ. Δ. Σαμίου]
TTITLE1=Σαμίου Δόμνα - Όσο βαρούν τα σίδερα [1973, Δ. Σαμίου]
TTITLE2=Σαμίου Δόμνα - Από τα γλυκά σου μάτια [1976, παραδ., διασκ. Δ. Σαμίου]
TTITLE3=Σαμίου Δόμνα - Ρούσα παπαδιά [1973, παραδ., διασκ. Δ. Σαμίου]
TTITLE4=Σαμίου Δόμνα - Αρμενάκι [1976, Δ. Σαμίου]
EXTD=AeaiYiaoae aunaUi ia Yioo?i\n(C) MINOS-EMI A.A. 2006
EXTT0=Ðáñáäïóéáêü - ÄéáóêåõÞ: Äüìíá Óáìßïõ
EXTT1=ÌïõóéêÞ - Óôß÷ïé: Äüìíá Óáìßïõ
EXTT2=Ðáñáäïóéáêü - ÄéáóêåõÞ: Äüìíá Óáìßïõ
EXTT3=Ðáñáäïóéáêü - ÄéáóêåõÞ: Äüìíá Óáìßïõ
EXTT4=ÌïõóéêÞ - Óôß÷ïé: Äüìíá Óáìßïõ\n
PLAYORDER=
